<svg xmlns="http://www.w3.org/2000/svg" xmlns:xlink="http://www.w3.org/1999/xlink" version="1.1" style="enable-background:new 0 0 512 512;" xml:space="preserve" width="512" height="512"><rect id="backgroundrect" width="100%" height="100%" x="0" y="0" fill="none" stroke="none"/>





























<g class="currentLayer" style=""><title>Layer 1</title><g id="svg_1" class="" fill="#000099" fill-opacity="1">
	<g id="svg_2" fill="#000099" fill-opacity="1">
		<path d="M439.223,0H140.457c-20.659,0-37.465,16.807-37.465,37.465v102.057c0,4.142,3.358,7.5,7.5,7.5c4.142,0,7.5-3.358,7.5-7.5    V37.465C117.992,25.078,128.07,15,140.457,15h298.766c12.387,0,22.465,10.078,22.465,22.465v176.341    c0,12.387-10.078,22.465-22.465,22.465H244.917c-4.142,0-7.5,3.358-7.5,7.5c0,4.142,3.358,7.5,7.5,7.5h194.306    c20.658,0,37.465-16.807,37.465-37.465V37.465C476.688,16.807,459.881,0,439.223,0z" id="svg_3" fill="#000099" fill-opacity="1"/>
	</g>
</g><g id="svg_4" class="" fill="#000099" fill-opacity="1">
	<g id="svg_5" fill="#000099" fill-opacity="1">
		<path d="M217.527,39.627c-20.992,0-38.071,17.079-38.071,38.071v14.359c0,20.992,17.079,38.07,38.071,38.07    s38.07-17.078,38.07-38.07V77.698C255.597,56.706,238.519,39.627,217.527,39.627z M240.597,92.057    c0,12.721-10.349,23.07-23.07,23.07s-23.071-10.349-23.071-23.07V77.698c0-12.721,10.35-23.071,23.071-23.071    c12.721,0,23.07,10.35,23.07,23.071V92.057z" id="svg_6" fill="#000099" fill-opacity="1"/>
	</g>
</g><g id="svg_7" class="" fill="#000099" fill-opacity="1">
	<g id="svg_8" fill="#000099" fill-opacity="1">
		<path d="M362.153,39.627c-20.992,0-38.07,17.079-38.07,38.071v14.359c0,20.992,17.078,38.07,38.07,38.07    s38.071-17.078,38.071-38.07V77.698C400.224,56.706,383.145,39.627,362.153,39.627z M385.224,92.057    c0,12.721-10.35,23.07-23.071,23.07c-12.721,0-23.07-10.349-23.07-23.07V77.698c0-12.721,10.349-23.071,23.07-23.071    s23.071,10.35,23.071,23.071V92.057z" id="svg_9" fill="#000099" fill-opacity="1"/>
	</g>
</g><g id="svg_10" class="" fill="#000099" fill-opacity="1">
	<g id="svg_11" fill="#000099" fill-opacity="1">
		<path d="M421.118,203.283l-3.897-33.711c-2.145-18.556-17.851-32.55-36.534-32.55h-37.064c-18.685,0-34.391,13.994-36.536,32.55    l-3.897,33.711c-0.246,2.125,0.428,4.254,1.851,5.851c1.423,1.597,3.46,2.511,5.6,2.511h103.026c2.139,0,4.176-0.914,5.6-2.511    C420.69,207.537,421.364,205.408,421.118,203.283z M395.391,196.645v-18.147c0-4.142-3.358-7.5-7.5-7.5    c-4.142,0-7.5,3.358-7.5,7.5v18.147h-36.476v-18.147c0-4.142-3.358-7.5-7.5-7.5c-4.142,0-7.5,3.358-7.5,7.5v18.147h-9.858    l2.931-25.35c1.27-10.987,10.57-19.272,21.633-19.272h37.064c11.063,0,20.363,8.285,21.633,19.272l2.931,25.35H395.391z" id="svg_12" fill="#000099" fill-opacity="1"/>
	</g>
</g><g id="svg_13" class="" fill="#000099" fill-opacity="1">
	<g id="svg_14" fill="#000099" fill-opacity="1">
		<path d="M346.52,358.067c-4.142,0-7.5,3.358-7.5,7.5v5c0,4.142,3.358,7.5,7.5,7.5c4.142,0,7.5-3.358,7.5-7.5v-5    C354.02,361.425,350.662,358.067,346.52,358.067z" id="svg_15" fill="#000099" fill-opacity="1"/>
	</g>
</g><g id="svg_16" class="" fill="#000099" fill-opacity="1">
	<g id="svg_17" fill="#000099" fill-opacity="1">
		<path d="M346.52,293.654c-4.142,0-7.5,3.358-7.5,7.5v8.052c0,4.142,3.358,7.5,7.5,7.5c4.142,0,7.5-3.358,7.5-7.5v-8.052    C354.02,297.012,350.662,293.654,346.52,293.654z" id="svg_18" fill="#000099" fill-opacity="1"/>
	</g>
</g><g id="svg_19" class="" fill="#000099" fill-opacity="1">
	<g id="svg_20" fill="#000099" fill-opacity="1">
		<path d="M346.52,325.86c-4.142,0-7.5,3.358-7.5,7.5v8.052c0,4.142,3.358,7.5,7.5,7.5c4.142,0,7.5-3.358,7.5-7.5v-8.052    C354.02,329.218,350.662,325.86,346.52,325.86z" id="svg_21" fill="#000099" fill-opacity="1"/>
	</g>
</g><g id="svg_22" class="" fill="#000099" fill-opacity="1">
	<g id="svg_23" fill="#000099" fill-opacity="1">
		<path d="M346.52,264.499c-4.142,0-7.5,3.358-7.5,7.5v5c0,4.142,3.357,7.5,7.5,7.5c4.142,0,7.5-3.358,7.5-7.5v-5    C354.02,267.857,350.662,264.499,346.52,264.499z" id="svg_24" fill="#000099" fill-opacity="1"/>
	</g>
</g><g id="svg_25" class="" fill="#000099" fill-opacity="1">
	<g id="svg_26" fill="#000099" fill-opacity="1">
		<path d="M363.218,433.983h-9.198v-9.198c0-4.142-3.358-7.5-7.5-7.5c-4.142,0-7.5,3.358-7.5,7.5v9.198h-9.198    c-4.142,0-7.5,3.358-7.5,7.5c0,4.142,3.358,7.5,7.5,7.5h9.198v9.198c0,4.142,3.358,7.5,7.5,7.5c4.142,0,7.5-3.358,7.5-7.5v-9.198    h9.198c4.142,0,7.5-3.358,7.5-7.5C370.718,437.341,367.36,433.983,363.218,433.983z" id="svg_27" fill="#000099" fill-opacity="1"/>
	</g>
</g><g id="svg_28" class="" fill="#000099" fill-opacity="1">
	<g id="svg_29" fill="#000099" fill-opacity="1">
		<path d="M347.1778947305679,388.542 c-29.192,0 -52.942,23.75 -52.942,52.941 c0,29.192 23.75,52.942 52.942,52.942 s52.941,-23.75 52.941,-52.942 C400.11889473056794,412.292 376.3698947305679,388.542 347.1778947305679,388.542 zM347.1778947305679,479.425 c-20.921,0 -37.942,-17.021 -37.942,-37.942 s17.021,-37.941 37.942,-37.941 s37.941,17.021 37.941,37.941 C385.11889473056794,462.405 368.0988947305679,479.425 347.1778947305679,479.425 z" id="svg_30" fill="#000099" fill-opacity="1"/>
	</g>
</g><g id="svg_31" class="selected" fill="#000099" fill-opacity="1">
	<g id="svg_32" fill="#000099" fill-opacity="1">
		<path d="M160.048,322.139c-3.837-1.556-8.212,0.292-9.769,4.131c-2.721,6.709-9.166,11.044-16.419,11.044    c-4.729,0-9.184-1.845-12.536-5.188c-1.691-1.691-2.996-3.658-3.878-5.844c-1.55-3.84-5.919-5.699-9.762-4.148    c-3.841,1.55-5.698,5.92-4.148,9.762c1.641,4.066,4.057,7.712,7.188,10.844c6.19,6.175,14.407,9.575,23.136,9.575    c13.39,0,25.291-8.01,30.319-20.407C165.736,328.069,163.887,323.696,160.048,322.139z" id="svg_33" fill="#000099" fill-opacity="1"/>
	</g>
</g><g id="svg_34" class="" fill="#000099" fill-opacity="1">
	<g id="svg_35" fill="#000099" fill-opacity="1">
		<path d="M275.8321052694321,203.278 l-3.9,-33.71 c-2.148,-18.555 -17.853,-32.548 -36.53,-32.548 h-37.07 c-12.89,0 -24.695,6.737 -31.318,17.51 H131.41210526943206 c-14.896,0 -27.021,12.095 -27.07,26.98 h-6.890000000000001 c-29.461,0 -53.43,23.973 -53.43,53.44 v52.877 c-5.6610000000000005,3.9939999999999998 -9.368,10.58 -9.368,18.019 v6.8790000000000004 c0,12.156 9.89,22.045 22.045,22.045 h7.5600000000000005 c3.533,22.908 18.137,41.989 38.073,51.827 v6.963 h-1.28 c-12.978,0 -25.741,4.4030000000000005 -35.938,12.397 c-3.26,2.556 -3.831,7.271 -1.275,10.53 c1.479,1.887 3.6820000000000004,2.873 5.907,2.873 c1.6190000000000002,0 3.25,-0.522 4.623,-1.598 c7.678,-6.02 16.905,-9.202 26.683,-9.202 h1.28 v0.6300000000000001 c0,17.022 13.848,30.87 30.87,30.87 c8.238,0 15.99,-3.207 21.833,-9.037 c5.827,-5.827 9.037,-13.581 9.037,-21.833 v-0.6300000000000001 h1.28 c21.996,0 40.486,16.47 43.01,38.311 L214.15510526943206,497 h-17.918 v-36.996 c0,-4.142 -3.358,-7.5 -7.5,-7.5 c-4.142,0 -7.5,3.358 -7.5,7.5 V497 H85.16810526943206 v-36.996 c0,-4.142 -3.358,-7.5 -7.5,-7.5 c-4.142,0 -7.5,3.358 -7.5,7.5 V497 H52.249105269432064 l5.7940000000000005,-50.135 c0.32600000000000007,-2.837 0.9390000000000001,-5.6610000000000005 1.824,-8.394 c1.276,-3.94 -0.8840000000000001,-8.17 -4.825,-9.446 c-3.943,-1.2770000000000001 -8.17,0.8840000000000001 -9.446,4.825 c-1.191,3.678 -2.017,7.481 -2.455,11.299 l-6.76,58.49 c-0.24600000000000002,2.125 0.42800000000000005,4.253 1.851,5.851 c1.423,1.597 3.46,2.51 5.6,2.51 h178.74 c2.1390000000000002,0 4.176,-0.914 5.6,-2.51 c1.423,-1.597 2.096,-3.726 1.851,-5.851 l-6.76,-58.49 c-3.398,-29.411 -28.294,-51.589 -57.911,-51.589 h-1.28 v-6.974 c6.254,-3.091 12.072,-7.122 17.243,-12.049 c11.235,-10.704 18.483,-24.625 20.828,-39.767 h7.563 c12.156,0 22.045,-9.89 22.045,-22.045 v-6.8790000000000004 c0,-7.44 -3.708,-14.025 -9.369,-18.019 V211.64 h20.176 c0.016000000000000004,0 0.03200000000000001,0.0020000000000000005 0.04800000000000001,0.0020000000000000005 c0.016000000000000004,0 0.03200000000000001,-0.0020000000000000005 0.04800000000000001,-0.0020000000000000005 h25.727 c2.1390000000000002,0 4.177,-0.914 5.6,-2.511 C275.4041052694321,207.532 276.07810526943206,205.403 275.8321052694321,203.278 zM59.02210526943207,234.95 c0,-21.196 17.239,-38.44 38.43,-38.44 h6.98 c3.984,0 7.729,-1.5510000000000002 10.543,-4.367 c2.816,-2.816 4.367,-6.5600000000000005 4.367,-10.543 c0,-6.656000000000001 5.415,-12.07 12.07,-12.07 h39.991 c0.016000000000000004,0 0.03200000000000001,0 0.04800000000000001,0 h9.021 c14.838000000000001,0 26.91,12.072 26.91,26.91 v87.361 h-4.407 v-17.398 c0,-2.489 -0.18900000000000003,-4.965 -0.562,-7.358 c-0.5680000000000001,-3.653 -3.714,-6.347 -7.411,-6.347 h-46.367 c-15.512,0 -28.354,-12.115 -29.235,-27.582 c-0.017000000000000005,-0.30500000000000005 -0.05900000000000001,-0.6030000000000001 -0.11100000000000002,-0.8980000000000001 v-12.726 c0,-4.142 -3.358,-7.5 -7.5,-7.5 c-4.142,0 -7.5,3.358 -7.5,7.5 v7.135 c-23.116,3.615 -40.859,23.66 -40.859,47.775 V283.8 H59.02210526943207 V234.95 zM149.07210526943206,409.19 c0,4.246 -1.649,8.233 -4.6370000000000005,11.221 c-3.005,2.998 -6.995,4.649 -11.233,4.649 c-8.75,0 -15.870000000000001,-7.119 -15.870000000000001,-15.870000000000001 v-17.22 c5.102,1.185 10.415,1.8130000000000002 15.870000000000001,1.8130000000000002 c5.402,0 10.718,-0.6280000000000001 15.870000000000001,-1.8250000000000002 V409.19 zM216.75110526943206,312.725 c0,3.8850000000000002 -3.161,7.045 -7.045,7.045 h-14.32 c-3.991,0 -7.283,3.125 -7.49,7.11 c-0.7290000000000001,14.024 -6.741,27.092 -16.927,36.796 c-5.044,4.806 -10.866,8.541 -17.165,11.097 c-0.09700000000000003,0.03900000000000001 -0.19300000000000003,0.07900000000000001 -0.28800000000000003,0.12100000000000001 c-6.388,2.55 -13.261,3.887 -20.313,3.887 c-7.191,0 -14.066,-1.391 -20.371,-3.915 c-0.11500000000000002,-0.05000000000000001 -0.234,-0.09300000000000003 -0.35200000000000004,-0.138 c-19.088,-7.795 -32.844,-26.052 -33.969,-47.846000000000004 c-0.20600000000000002,-3.9859999999999998 -3.499,-7.113 -7.49,-7.113 h-14.32 c-3.8850000000000002,0 -7.045,-3.161 -7.045,-7.045 v-6.8790000000000004 c0,-3.8850000000000002 3.161,-7.045 7.045,-7.045 h14.23 c4.142,0 7.5,-3.358 7.5,-7.5 v-24.898 c0,-16.258 11.689,-29.836 27.106,-32.771 c4.628,19.618 22.272,34.067 43.1,34.067 h39.339 v23.603 c0,4.142 3.358,7.5 7.5,7.5 h14.23 c3.8850000000000002,0 7.045,3.16 7.045,7.045 V312.725 zM250.10710526943205,196.64 v-18.143 c0,-4.142 -3.358,-7.5 -7.5,-7.5 c-4.142,0 -7.5,3.358 -7.5,7.5 v18.143 H222.38210526943206 v-0.2 c0,-20.811 -15.25,-38.121 -35.16,-41.359 c3.297,-1.957 7.113,-3.061 11.11,-3.061 h37.07 c11.059,0 20.358,8.286 21.63,19.272 l2.933,25.348 H250.10710526943205 z" id="svg_36" fill="#000099" fill-opacity="1"/>
	</g>
</g><g id="svg_37" class="" fill="#000099" fill-opacity="1">
	<g id="svg_38" fill="#000099" fill-opacity="1">
		<path d="M102.687,284.825c-4.142,0-7.5,3.358-7.5,7.5v3.008c0,4.142,3.358,7.5,7.5,7.5c4.142,0,7.5-3.357,7.5-7.5v-3.008    C110.187,288.183,106.829,284.825,102.687,284.825z" id="svg_39" fill="#000099" fill-opacity="1"/>
	</g>
</g><g id="svg_40" class="" fill="#000099" fill-opacity="1">
	<g id="svg_41" fill="#000099" fill-opacity="1">
		<path d="M165.034,284.825c-4.142,0-7.5,3.358-7.5,7.5v3.008c0,4.142,3.358,7.5,7.5,7.5c4.142,0,7.5-3.358,7.5-7.5v-3.008    C172.534,288.183,169.176,284.825,165.034,284.825z" id="svg_42" fill="#000099" fill-opacity="1"/>
	</g>
</g><g id="svg_43">
</g><g id="svg_44">
</g><g id="svg_45">
</g><g id="svg_46">
</g><g id="svg_47">
</g><g id="svg_48">
</g><g id="svg_49">
</g><g id="svg_50">
</g><g id="svg_51">
</g><g id="svg_52">
</g><g id="svg_53">
</g><g id="svg_54">
</g><g id="svg_55">
</g><g id="svg_56">
</g><g id="svg_57">
</g></g></svg>