<?xml version="1.0" encoding="iso-8859-1"?>
<!-- Generator: Adobe Illustrator 19.0.0, SVG Export Plug-In . SVG Version: 6.00 Build 0)  -->
<svg version="1.1" id="Capa_1" xmlns="http://www.w3.org/2000/svg" xmlns:xlink="http://www.w3.org/1999/xlink" x="0px" y="0px"
	 viewBox="0 0 512 512" style="enable-background:new 0 0 512 512;" xml:space="preserve">
<g>
	<g>
		<path d="M439.223,0H140.457c-20.659,0-37.465,16.807-37.465,37.465v102.057c0,4.142,3.358,7.5,7.5,7.5c4.142,0,7.5-3.358,7.5-7.5
			V37.465C117.992,25.078,128.07,15,140.457,15h298.766c12.387,0,22.465,10.078,22.465,22.465v176.341
			c0,12.387-10.078,22.465-22.465,22.465H244.917c-4.142,0-7.5,3.358-7.5,7.5c0,4.142,3.358,7.5,7.5,7.5h194.306
			c20.658,0,37.465-16.807,37.465-37.465V37.465C476.688,16.807,459.881,0,439.223,0z"/>
	</g>
</g>
<g>
	<g>
		<path d="M217.527,39.627c-20.992,0-38.071,17.079-38.071,38.071v14.359c0,20.992,17.079,38.07,38.071,38.07
			s38.07-17.078,38.07-38.07V77.698C255.597,56.706,238.519,39.627,217.527,39.627z M240.597,92.057
			c0,12.721-10.349,23.07-23.07,23.07s-23.071-10.349-23.071-23.07V77.698c0-12.721,10.35-23.071,23.071-23.071
			c12.721,0,23.07,10.35,23.07,23.071V92.057z"/>
	</g>
</g>
<g>
	<g>
		<path d="M362.153,39.627c-20.992,0-38.07,17.079-38.07,38.071v14.359c0,20.992,17.078,38.07,38.07,38.07
			s38.071-17.078,38.071-38.07V77.698C400.224,56.706,383.145,39.627,362.153,39.627z M385.224,92.057
			c0,12.721-10.35,23.07-23.071,23.07c-12.721,0-23.07-10.349-23.07-23.07V77.698c0-12.721,10.349-23.071,23.07-23.071
			s23.071,10.35,23.071,23.071V92.057z"/>
	</g>
</g>
<g>
	<g>
		<path d="M421.118,203.283l-3.897-33.711c-2.145-18.556-17.851-32.55-36.534-32.55h-37.064c-18.685,0-34.391,13.994-36.536,32.55
			l-3.897,33.711c-0.246,2.125,0.428,4.254,1.851,5.851c1.423,1.597,3.46,2.511,5.6,2.511h103.026c2.139,0,4.176-0.914,5.6-2.511
			C420.69,207.537,421.364,205.408,421.118,203.283z M395.391,196.645v-18.147c0-4.142-3.358-7.5-7.5-7.5
			c-4.142,0-7.5,3.358-7.5,7.5v18.147h-36.476v-18.147c0-4.142-3.358-7.5-7.5-7.5c-4.142,0-7.5,3.358-7.5,7.5v18.147h-9.858
			l2.931-25.35c1.27-10.987,10.57-19.272,21.633-19.272h37.064c11.063,0,20.363,8.285,21.633,19.272l2.931,25.35H395.391z"/>
	</g>
</g>
<g>
	<g>
		<path d="M346.52,358.067c-4.142,0-7.5,3.358-7.5,7.5v5c0,4.142,3.358,7.5,7.5,7.5c4.142,0,7.5-3.358,7.5-7.5v-5
			C354.02,361.425,350.662,358.067,346.52,358.067z"/>
	</g>
</g>
<g>
	<g>
		<path d="M346.52,293.654c-4.142,0-7.5,3.358-7.5,7.5v8.052c0,4.142,3.358,7.5,7.5,7.5c4.142,0,7.5-3.358,7.5-7.5v-8.052
			C354.02,297.012,350.662,293.654,346.52,293.654z"/>
	</g>
</g>
<g>
	<g>
		<path d="M346.52,325.86c-4.142,0-7.5,3.358-7.5,7.5v8.052c0,4.142,3.358,7.5,7.5,7.5c4.142,0,7.5-3.358,7.5-7.5v-8.052
			C354.02,329.218,350.662,325.86,346.52,325.86z"/>
	</g>
</g>
<g>
	<g>
		<path d="M346.52,264.499c-4.142,0-7.5,3.358-7.5,7.5v5c0,4.142,3.357,7.5,7.5,7.5c4.142,0,7.5-3.358,7.5-7.5v-5
			C354.02,267.857,350.662,264.499,346.52,264.499z"/>
	</g>
</g>
<g>
	<g>
		<path d="M363.218,433.983h-9.198v-9.198c0-4.142-3.358-7.5-7.5-7.5c-4.142,0-7.5,3.358-7.5,7.5v9.198h-9.198
			c-4.142,0-7.5,3.358-7.5,7.5c0,4.142,3.358,7.5,7.5,7.5h9.198v9.198c0,4.142,3.358,7.5,7.5,7.5c4.142,0,7.5-3.358,7.5-7.5v-9.198
			h9.198c4.142,0,7.5-3.358,7.5-7.5C370.718,437.341,367.36,433.983,363.218,433.983z"/>
	</g>
</g>
<g>
	<g>
		<path d="M346.52,388.542c-29.192,0-52.942,23.75-52.942,52.941c0,29.192,23.75,52.942,52.942,52.942s52.941-23.75,52.941-52.942
			C399.461,412.292,375.712,388.542,346.52,388.542z M346.52,479.425c-20.921,0-37.942-17.021-37.942-37.942
			s17.021-37.941,37.942-37.941s37.941,17.021,37.941,37.941C384.461,462.405,367.441,479.425,346.52,479.425z"/>
	</g>
</g>
<g>
	<g>
		<path d="M160.048,322.139c-3.837-1.556-8.212,0.292-9.769,4.131c-2.721,6.709-9.166,11.044-16.419,11.044
			c-4.729,0-9.184-1.845-12.536-5.188c-1.691-1.691-2.996-3.658-3.878-5.844c-1.55-3.84-5.919-5.699-9.762-4.148
			c-3.841,1.55-5.698,5.92-4.148,9.762c1.641,4.066,4.057,7.712,7.188,10.844c6.19,6.175,14.407,9.575,23.136,9.575
			c13.39,0,25.291-8.01,30.319-20.407C165.736,328.069,163.887,323.696,160.048,322.139z"/>
	</g>
</g>
<g>
	<g>
		<path d="M276.49,203.278l-3.9-33.71c-2.148-18.555-17.853-32.548-36.53-32.548h-37.07c-12.89,0-24.695,6.737-31.318,17.51H132.07
			c-14.896,0-27.021,12.095-27.07,26.98h-6.89c-29.461,0-53.43,23.973-53.43,53.44v52.877c-5.661,3.994-9.368,10.58-9.368,18.019
			v6.879c0,12.156,9.89,22.045,22.045,22.045h7.56c3.533,22.908,18.137,41.989,38.073,51.827v6.963h-1.28
			c-12.978,0-25.741,4.403-35.938,12.397c-3.26,2.556-3.831,7.271-1.275,10.53c1.479,1.887,3.682,2.873,5.907,2.873
			c1.619,0,3.25-0.522,4.623-1.598c7.678-6.02,16.905-9.202,26.683-9.202h1.28v0.63c0,17.022,13.848,30.87,30.87,30.87
			c8.238,0,15.99-3.207,21.833-9.037c5.827-5.827,9.037-13.581,9.037-21.833v-0.63h1.28c21.996,0,40.486,16.47,43.01,38.311
			L214.813,497h-17.918v-36.996c0-4.142-3.358-7.5-7.5-7.5c-4.142,0-7.5,3.358-7.5,7.5V497H85.826v-36.996
			c0-4.142-3.358-7.5-7.5-7.5c-4.142,0-7.5,3.358-7.5,7.5V497H52.907l5.794-50.135c0.326-2.837,0.939-5.661,1.824-8.394
			c1.276-3.94-0.884-8.17-4.825-9.446c-3.943-1.277-8.17,0.884-9.446,4.825c-1.191,3.678-2.017,7.481-2.455,11.299l-6.76,58.49
			c-0.246,2.125,0.428,4.253,1.851,5.851c1.423,1.597,3.46,2.51,5.6,2.51h178.74c2.139,0,4.176-0.914,5.6-2.51
			c1.423-1.597,2.096-3.726,1.851-5.851l-6.76-58.49c-3.398-29.411-28.294-51.589-57.911-51.589h-1.28v-6.974
			c6.254-3.091,12.072-7.122,17.243-12.049c11.235-10.704,18.483-24.625,20.828-39.767h7.563c12.156,0,22.045-9.89,22.045-22.045
			v-6.879c0-7.44-3.708-14.025-9.369-18.019V211.64h20.176c0.016,0,0.032,0.002,0.048,0.002c0.016,0,0.032-0.002,0.048-0.002h25.727
			c2.139,0,4.177-0.914,5.6-2.511C276.062,207.532,276.736,205.403,276.49,203.278z M59.68,234.95
			c0-21.196,17.239-38.44,38.43-38.44h6.98c3.984,0,7.729-1.551,10.543-4.367c2.816-2.816,4.367-6.56,4.367-10.543
			c0-6.656,5.415-12.07,12.07-12.07h39.991c0.016,0,0.032,0,0.048,0h9.021c14.838,0,26.91,12.072,26.91,26.91v87.361h-4.407v-17.398
			c0-2.489-0.189-4.965-0.562-7.358c-0.568-3.653-3.714-6.347-7.411-6.347h-46.367c-15.512,0-28.354-12.115-29.235-27.582
			c-0.017-0.305-0.059-0.603-0.111-0.898v-12.726c0-4.142-3.358-7.5-7.5-7.5c-4.142,0-7.5,3.358-7.5,7.5v7.135
			c-23.116,3.615-40.859,23.66-40.859,47.775V283.8H59.68V234.95z M149.73,409.19c0,4.246-1.649,8.233-4.637,11.221
			c-3.005,2.998-6.995,4.649-11.233,4.649c-8.75,0-15.87-7.119-15.87-15.87v-17.22c5.102,1.185,10.415,1.813,15.87,1.813
			c5.402,0,10.718-0.628,15.87-1.825V409.19z M217.409,312.725c0,3.885-3.161,7.045-7.045,7.045h-14.32
			c-3.991,0-7.283,3.125-7.49,7.11c-0.729,14.024-6.741,27.092-16.927,36.796c-5.044,4.806-10.866,8.541-17.165,11.097
			c-0.097,0.039-0.193,0.079-0.288,0.121c-6.388,2.55-13.261,3.887-20.313,3.887c-7.191,0-14.066-1.391-20.371-3.915
			c-0.115-0.05-0.234-0.093-0.352-0.138c-19.088-7.795-32.844-26.052-33.969-47.846c-0.206-3.986-3.499-7.113-7.49-7.113h-14.32
			c-3.885,0-7.045-3.161-7.045-7.045v-6.879c0-3.885,3.161-7.045,7.045-7.045h14.23c4.142,0,7.5-3.358,7.5-7.5v-24.898
			c0-16.258,11.689-29.836,27.106-32.771c4.628,19.618,22.272,34.067,43.1,34.067h39.339v23.603c0,4.142,3.358,7.5,7.5,7.5h14.23
			c3.885,0,7.045,3.16,7.045,7.045V312.725z M250.765,196.64v-18.143c0-4.142-3.358-7.5-7.5-7.5c-4.142,0-7.5,3.358-7.5,7.5v18.143
			H223.04v-0.2c0-20.811-15.25-38.121-35.16-41.359c3.297-1.957,7.113-3.061,11.11-3.061h37.07c11.059,0,20.358,8.286,21.63,19.272
			l2.933,25.348H250.765z"/>
	</g>
</g>
<g>
	<g>
		<path d="M102.687,284.825c-4.142,0-7.5,3.358-7.5,7.5v3.008c0,4.142,3.358,7.5,7.5,7.5c4.142,0,7.5-3.357,7.5-7.5v-3.008
			C110.187,288.183,106.829,284.825,102.687,284.825z"/>
	</g>
</g>
<g>
	<g>
		<path d="M165.034,284.825c-4.142,0-7.5,3.358-7.5,7.5v3.008c0,4.142,3.358,7.5,7.5,7.5c4.142,0,7.5-3.358,7.5-7.5v-3.008
			C172.534,288.183,169.176,284.825,165.034,284.825z"/>
	</g>
</g>
<g>
</g>
<g>
</g>
<g>
</g>
<g>
</g>
<g>
</g>
<g>
</g>
<g>
</g>
<g>
</g>
<g>
</g>
<g>
</g>
<g>
</g>
<g>
</g>
<g>
</g>
<g>
</g>
<g>
</g>
</svg>
