<svg height="512pt" viewBox="-4 0 512 512" width="512pt" xmlns="http://www.w3.org/2000/svg"><path d="m98.664062 36.652344h50.113282c4.171875 0 7.550781-3.378906 7.550781-7.550782 0-4.167968-3.378906-7.546874-7.550781-7.546874h-50.113282c-4.171874 0-7.550781 3.378906-7.550781 7.546874 0 4.171876 3.378907 7.550782 7.550781 7.550782zm0 0"/><path d="m188.460938 29.746094c0 4.171875-3.382813 7.550781-7.550782 7.550781-4.171875 0-7.550781-3.378906-7.550781-7.550781 0-4.167969 3.378906-7.546875 7.550781-7.546875 4.167969 0 7.550782 3.378906 7.550782 7.546875zm0 0"/><path d="m414.34375 146.050781c-2.167969-7.082031-8.929688-12.027343-16.441406-12.027343h-256.222656c-7.515626 0-14.273438 4.949218-16.441407 12.027343-3.109375 10.15625-11.480469 17.835938-21.855469 20.046875-7.925781 1.691406-13.683593 8.785156-13.683593 16.871094v82.480469c0 8.085937 5.757812 15.179687 13.683593 16.871093 10.375 2.210938 18.746094 9.890626 21.855469 20.042969 2.167969 7.085938 8.925781 12.03125 16.441407 12.03125h15.402343c4.171875 0 7.550781-3.378906 7.550781-7.550781 0-4.167969-3.378906-7.550781-7.550781-7.550781h-15.402343c-.921876 0-1.761719-.566407-2-1.347657-4.714844-15.394531-17.414063-27.039062-33.148438-30.394531-1.019531-.214843-1.730469-1.082031-1.730469-2.101562v-82.480469c0-1.019531.710938-1.886719 1.730469-2.101562 15.734375-3.355469 28.433594-15 33.148438-30.394532.238281-.78125 1.078124-1.347656 2-1.347656h256.222656c.921875 0 1.761718.566406 2 1.347656 4.710937 15.394532 17.414062 27.039063 33.144531 30.394532 1.019531.214843 1.734375 1.082031 1.734375 2.101562v82.480469c0 1.019531-.714844 1.886719-1.734375 2.101562-15.730469 3.355469-28.433594 15-33.144531 30.394531-.238282.78125-1.078125 1.347657-2 1.347657h-210.621094c-4.167969 0-7.546875 3.382812-7.546875 7.550781 0 4.171875 3.378906 7.550781 7.546875 7.550781h210.621094c7.511718 0 14.273437-4.945312 16.441406-12.03125 3.105469-10.152343 11.480469-17.832031 21.851562-20.042969 7.929688-1.691406 13.6875-8.785156 13.6875-16.871093v-82.480469c0-8.085938-5.757812-15.179688-13.6875-16.871094-10.371093-2.210937-18.746093-9.890625-21.851562-20.046875zm0 0"/><path d="m110.078125 142.484375c0 4.402344-3.570313 7.972656-7.972656 7.972656-4.402344 0-7.972657-3.570312-7.972657-7.972656 0-4.40625 3.570313-7.972656 7.972657-7.972656 4.402343 0 7.972656 3.566406 7.972656 7.972656zm0 0"/><path d="m445.449219 142.484375c0 4.402344-3.570313 7.972656-7.972657 7.972656-4.40625 0-7.972656-3.570312-7.972656-7.972656 0-4.40625 3.566406-7.972656 7.972656-7.972656 4.402344 0 7.972657 3.566406 7.972657 7.972656zm0 0"/><path d="m110.078125 305.933594c0 4.40625-3.570313 7.972656-7.972656 7.972656-4.402344 0-7.972657-3.566406-7.972657-7.972656 0-4.402344 3.570313-7.972656 7.972657-7.972656 4.402343 0 7.972656 3.570312 7.972656 7.972656zm0 0"/><path d="m445.449219 305.933594c0 4.40625-3.570313 7.972656-7.972657 7.972656-4.40625 0-7.972656-3.566406-7.972656-7.972656 0-4.402344 3.566406-7.972656 7.972656-7.972656 4.402344 0 7.972657 3.570312 7.972657 7.972656zm0 0"/><path d="m277.890625 272.152344v-9c9.824219-2.792969 15.476563-10.621094 15.476563-22.132813 0-28.320312-32.527344-21.21875-32.527344-34.902343 0-5.152344 3.675781-7.765626 10.929687-7.765626 5.070313 0 7.84375 1.425782 9.867188 2.472657 1.335937.6875 2.492187 1.28125 3.875 1.28125 5.433593 0 13.4375-12.824219-7.621094-15.679688v-9.898437c0-4.167969-3.378906-7.546875-7.546875-7.546875-4.171875 0-7.550781 3.378906-7.550781 7.546875v10.570312c-9.710938 2.5625-15.292969 9.558594-15.292969 19.808594 0 25.6875 32.53125 17.78125 32.53125 34.90625 0 8.054688-6.105469 9.742188-11.226562 9.742188-11.222657 0-11.878907-8.007813-16.910157-8.007813-3.417969 0-6.175781 3.863281-6.175781 7.066406 0 5.261719 7.089844 11.226563 17.074219 13.09375v8.441407c0 4.171874 3.378906 7.550781 7.550781 7.550781 4.167969 0 7.546875-3.378907 7.546875-7.546875zm0 0"/><path d="m342.578125 224.207031c0-40.132812-32.652344-72.789062-72.789063-72.789062-40.132812 0-72.789062 32.65625-72.789062 72.789062 0 40.136719 32.65625 72.792969 72.789062 72.792969 40.136719 0 72.789063-32.65625 72.789063-72.792969zm-130.476563 0c0-31.808593 25.878907-57.6875 57.6875-57.6875 31.8125 0 57.691407 25.878907 57.691407 57.6875 0 31.8125-25.878907 57.691407-57.691407 57.691407-31.808593 0-57.6875-25.878907-57.6875-57.691407zm0 0"/><path d="m407.378906 230.085938c4.171875 0 7.550782-3.378907 7.550782-7.550782 0-4.167968-3.378907-7.550781-7.550782-7.550781h-36.804687c-4.167969 0-7.546875 3.382813-7.546875 7.550781 0 4.171875 3.378906 7.550782 7.546875 7.550782zm0 0"/><path d="m132.203125 218.332031c-4.167969 0-7.550781 3.378907-7.550781 7.550781 0 4.167969 3.382812 7.550782 7.550781 7.550782h36.800781c4.171875 0 7.550782-3.382813 7.550782-7.550782 0-4.171874-3.378907-7.550781-7.550782-7.550781zm0 0"/><path d="m305.578125 394.960938-23.617187-13.628907v-34.730469h164.371093c18.707031 0 33.925781-15.222656 33.925781-33.925781v-176.933593c0-18.703126-15.21875-33.925782-33.925781-33.925782h-49.910156c-4.167969 0-7.550781 3.382813-7.550781 7.550782 0 4.175781 3.382812 7.550781 7.550781 7.550781h49.910156c10.378907 0 18.828125 8.445312 18.828125 18.824219v176.933593c0 10.378907-8.449218 18.824219-18.828125 18.824219-3.441406 0-349.519531 0-353.082031 0-10.378906 0-18.824219-8.445312-18.824219-18.824219v-176.933593c0-10.378907 8.445313-18.824219 18.824219-18.824219h272.972656c4.175782 0 7.550782-3.375 7.550782-7.550781 0-4.167969-3.375-7.550782-7.550782-7.550782h-84.261718v-68.171875c0-18.554687-15.097657-33.644531-33.652344-33.644531-11.121094 0-204.09375 0-214.664063 0-18.554687 0-33.644531 15.089844-33.644531 33.644531v310.289063c0 4.179687 3.382812 7.550781 7.550781 7.550781s7.550781-3.371094 7.550781-7.550781v-310.289063c0-10.230469 8.3125-18.542969 18.542969-18.542969h28.636719l6.402344 32.75c1.253906 6.398438 6.890625 11.039063 13.40625 11.039063h118.679687c6.667969 0 12.332031-4.769531 13.460938-11.339844l5.589843-32.449219h28.488282c10.226562 0 18.554687 8.3125 18.554687 18.542969v68.171875h-12.132812v-12.039062c0-11.316406-9.199219-20.515625-20.503907-20.515625h-186.488281c-11.304687 0-20.515625 9.199219-20.515625 20.515625v374.726562c0 11.316406 9.210938 20.515625 20.515625 20.515625h186.488281c11.304688 0 20.503907-9.199219 20.503907-20.515625v-18.121094l12.132812-7.003906v38.976563c0 10.230469-8.328125 18.542969-18.554687 18.542969h-214.664063c-10.230469 0-18.542969-8.3125-18.542969-18.542969v-104.222657c0-4.164062-3.382812-7.546874-7.550781-7.546874s-7.550781 3.382812-7.550781 7.546874v104.222657c0 18.554687 15.089844 33.644531 33.644531 33.644531h214.664063c18.554687 0 33.652344-15.089844 33.652344-33.644531v-47.695313l23.617187-13.628906c8.484375-4.90625 8.492187-17.179688 0-22.070312zm-106.023437-351.171876h-116.28125l-5.605469-28.6875h126.832031zm55.175781 302.8125h12.132812v26.011719l-12.132812-7.003906zm-15.097657 117.902344c0 2.992188-2.425781 5.417969-5.40625 5.417969h-186.488281c-2.980469 0-5.417969-2.425781-5.417969-5.417969v-374.726562c0-2.992188 2.4375-5.417969 5.417969-5.417969h186.488281c2.980469 0 5.40625 2.425781 5.40625 5.417969v12.039062h-146.382812c-18.703125 0-33.925781 15.222656-33.925781 33.925782v176.933593c0 18.703125 15.222656 33.925781 33.925781 33.925781h146.382812v10.289063l-8.980468-5.183594c-1.945313-1.117187-4.148438-1.710937-6.363282-1.710937-7.027343 0-12.746093 5.714844-12.746093 12.742187v12.957031h-127.484375c-10.226563 0-18.542969 8.324219-18.542969 18.542969v23.515625c0 10.21875 8.316406 18.542969 18.542969 18.542969h127.484375v12.957031c0 7.027344 5.71875 12.742188 12.746093 12.742188 4.347657 0 6.230469-1.632813 15.34375-6.894532zm-28.089843-73.707031v30.398437h-127.484375c-1.902344 0-3.441406-1.546874-3.441406-3.441406v-23.515625c0-1.894531 1.539062-3.441406 3.441406-3.441406zm15.101562 54.359375c0-37.78125 0-42.984375 0-78.320312 47.003907 27.144531 26.515625 15.296874 67.832031 39.160156-43.097656 24.894531-21.105468 12.175781-67.832031 39.160156zm0 0"/><path d="m496.847656 441.269531c-81.175781-46.863281-76.558594-44.96875-81.289062-44.96875-7.027344 0-12.742188 5.71875-12.742188 12.746094v12.957031h-67.085937c-10.230469 0-18.542969 8.324219-18.542969 18.542969v23.515625c0 10.21875 8.3125 18.542969 18.542969 18.542969h67.085937v12.957031c0 9.726562 10.558594 15.945312 19.105469 11.03125l74.925781-43.257812c8.484375-4.902344 8.492188-17.175782 0-22.066407zm-94.03125 26.234375h-67.085937c-1.902344 0-3.445313-1.550781-3.445313-3.441406v-23.515625c0-1.894531 1.542969-3.445313 3.445313-3.445313h67.085937zm15.097656 23.960938c0-37.226563 0-41.570313 0-78.320313l67.832032 39.160157zm0 0"/></svg>