<svg xmlns="http://www.w3.org/2000/svg" height="512" width="512"><rect id="backgroundrect" width="100%" height="100%" x="0" y="0" fill="none" stroke="none"/><g class="currentLayer" style=""><title>Layer 1</title><path d="m98.664062 36.652344h50.113282c4.171875 0 7.550781-3.378906 7.550781-7.550782 0-4.167968-3.378906-7.546874-7.550781-7.546874h-50.113282c-4.171874 0-7.550781 3.378906-7.550781 7.546874 0 4.171876 3.378907 7.550782 7.550781 7.550782zm0 0" id="svg_1" class="" fill="#000099" fill-opacity="1"/><path d="m188.460938 29.746094c0 4.171875-3.382813 7.550781-7.550782 7.550781-4.171875 0-7.550781-3.378906-7.550781-7.550781 0-4.167969 3.378906-7.546875 7.550781-7.546875 4.167969 0 7.550782 3.378906 7.550782 7.546875zm0 0" id="svg_2" class="" fill="#000099" fill-opacity="1"/><path d="m413.68585526943207,146.050781 c-2.1679690000000003,-7.082031 -8.929688,-12.027343 -16.441406,-12.027343 h-256.222656 c-7.515626,0 -14.273438,4.949218 -16.441407,12.027343 c-3.109375,10.15625 -11.480469,17.835938 -21.855469,20.046875 c-7.925781,1.6914060000000002 -13.683593,8.785156 -13.683593,16.871094 v82.480469 c0,8.085937 5.757812,15.179687 13.683593,16.871093000000002 c10.375,2.210938 18.746094,9.890626000000001 21.855469,20.042969 c2.1679690000000003,7.085938 8.925781,12.03125 16.441407,12.03125 h15.402343 c4.171875,0 7.550781,-3.378906 7.550781,-7.550781 c0,-4.167969 -3.378906,-7.550781 -7.550781,-7.550781 h-15.402343 c-0.921876,0 -1.7617190000000003,-0.566407 -2,-1.347657 c-4.714844,-15.394531 -17.414063,-27.039062 -33.148438,-30.394531 c-1.019531,-0.21484300000000003 -1.730469,-1.082031 -1.730469,-2.101562 v-82.480469 c0,-1.019531 0.7109380000000001,-1.8867190000000003 1.730469,-2.101562 c15.734375,-3.3554690000000003 28.433594,-15 33.148438,-30.394532 c0.23828100000000002,-0.78125 1.078124,-1.3476560000000002 2,-1.3476560000000002 h256.222656 c0.9218750000000001,0 1.7617180000000001,0.566406 2,1.3476560000000002 c4.710937,15.394532 17.414062,27.039063 33.144531,30.394532 c1.019531,0.21484300000000003 1.734375,1.082031 1.734375,2.101562 v82.480469 c0,1.019531 -0.7148440000000001,1.8867190000000003 -1.734375,2.101562 c-15.730469,3.3554690000000003 -28.433594,15 -33.144531,30.394531 c-0.23828200000000002,0.78125 -1.078125,1.347657 -2,1.347657 h-210.621094 c-4.167969,0 -7.546875,3.382812 -7.546875,7.550781 c0,4.171875 3.378906,7.550781 7.546875,7.550781 h210.621094 c7.511718,0 14.273437,-4.9453119999999995 16.441406,-12.03125 c3.105469,-10.152343 11.480469,-17.832031 21.851562,-20.042969 c7.9296880000000005,-1.6914060000000002 13.6875,-8.785156 13.6875,-16.871093000000002 v-82.480469 c0,-8.085938 -5.757812,-15.179688 -13.6875,-16.871094 c-10.371093,-2.210937 -18.746093000000002,-9.890625 -21.851562,-20.046875 zm0,0 " id="svg_3" class="" fill="#000099" fill-opacity="1"/><path d="m109.42023026943207,142.484375 c0,4.402344 -3.570313,7.972656 -7.972656,7.972656 c-4.402344,0 -7.972657,-3.570312 -7.972657,-7.972656 c0,-4.40625 3.570313,-7.972656 7.972657,-7.972656 c4.402343,0 7.972656,3.5664059999999997 7.972656,7.972656 zm0,0 " id="svg_4" class="" fill="#000099" fill-opacity="1"/><path d="m445.449219 142.484375c0 4.402344-3.570313 7.972656-7.972657 7.972656-4.40625 0-7.972656-3.570312-7.972656-7.972656 0-4.40625 3.566406-7.972656 7.972656-7.972656 4.402344 0 7.972657 3.566406 7.972657 7.972656zm0 0" id="svg_5" class="" fill="#000099" fill-opacity="1"/><path d="m110.078125 305.933594c0 4.40625-3.570313 7.972656-7.972656 7.972656-4.402344 0-7.972657-3.566406-7.972657-7.972656 0-4.402344 3.570313-7.972656 7.972657-7.972656 4.402343 0 7.972656 3.570312 7.972656 7.972656zm0 0" id="svg_6" class="" fill="#000099" fill-opacity="1"/><path d="m445.449219 305.933594c0 4.40625-3.570313 7.972656-7.972657 7.972656-4.40625 0-7.972656-3.566406-7.972656-7.972656 0-4.402344 3.566406-7.972656 7.972656-7.972656 4.402344 0 7.972657 3.570312 7.972657 7.972656zm0 0" id="svg_7" class="" fill="#000099" fill-opacity="1"/><path d="m277.890625,271.4944492694321 v-9 c9.824219,-2.7929690000000003 15.476563,-10.621094 15.476563,-22.132813 c0,-28.320312 -32.527344,-21.21875 -32.527344,-34.902343 c0,-5.152344 3.675781,-7.765626 10.929687,-7.765626 c5.070313,0 7.84375,1.425782 9.867188,2.472657 c1.335937,0.6875000000000001 2.492187,1.28125 3.875,1.28125 c5.433593,0 13.4375,-12.824219 -7.621094,-15.679688 v-9.898437 c0,-4.167969 -3.378906,-7.546875 -7.546875,-7.546875 c-4.171875,0 -7.550781,3.378906 -7.550781,7.546875 v10.570312 c-9.710938,2.5625 -15.292969,9.558594 -15.292969,19.808594 c0,25.6875 32.53125,17.78125 32.53125,34.90625 c0,8.054688 -6.105469,9.742188 -11.226562,9.742188 c-11.222657,0 -11.878907,-8.007813 -16.910157,-8.007813 c-3.4179690000000003,0 -6.175781,3.863281 -6.175781,7.066406 c0,5.261719 7.089844,11.226563 17.074219,13.09375 v8.441407 c0,4.171874 3.378906,7.550781 7.550781,7.550781 c4.167969,0 7.546875,-3.378907 7.546875,-7.546875 zm0,0 " id="svg_8" class="" fill="#000099" fill-opacity="1"/><path d="m342.578125 224.207031c0-40.132812-32.652344-72.789062-72.789063-72.789062-40.132812 0-72.789062 32.65625-72.789062 72.789062 0 40.136719 32.65625 72.792969 72.789062 72.792969 40.136719 0 72.789063-32.65625 72.789063-72.792969zm-130.476563 0c0-31.808593 25.878907-57.6875 57.6875-57.6875 31.8125 0 57.691407 25.878907 57.691407 57.6875 0 31.8125-25.878907 57.691407-57.691407 57.691407-31.808593 0-57.6875-25.878907-57.6875-57.691407zm0 0" id="svg_9" class="" fill="#000099" fill-opacity="1"/><path d="m407.378906 230.085938c4.171875 0 7.550782-3.378907 7.550782-7.550782 0-4.167968-3.378907-7.550781-7.550782-7.550781h-36.804687c-4.167969 0-7.546875 3.382813-7.546875 7.550781 0 4.171875 3.378906 7.550782 7.546875 7.550782zm0 0" id="svg_10" class="" fill="#000099" fill-opacity="1"/><path d="m132.203125 218.332031c-4.167969 0-7.550781 3.378907-7.550781 7.550781 0 4.167969 3.382812 7.550782 7.550781 7.550782h36.800781c4.171875 0 7.550782-3.382813 7.550782-7.550782 0-4.171874-3.378907-7.550781-7.550782-7.550781zm0 0" id="svg_11" class="" fill="#000099" fill-opacity="1"/><path d="m306.23601973056793,394.960938 l-23.617187,-13.628907 v-34.730469 h164.371093 c18.707031,0 33.925781,-15.222656 33.925781,-33.925781 v-176.933593 c0,-18.703126 -15.21875,-33.925782 -33.925781,-33.925782 h-49.910156 c-4.167969,0 -7.550781,3.382813 -7.550781,7.550782 c0,4.175781 3.382812,7.550781 7.550781,7.550781 h49.910156 c10.378907,0 18.828125,8.445312 18.828125,18.824219 v176.933593 c0,10.378907 -8.449218,18.824219 -18.828125,18.824219 c-3.441406,0 -349.519531,0 -353.082031,0 c-10.378906,0 -18.824219,-8.445312 -18.824219,-18.824219 v-176.933593 c0,-10.378907 8.445313,-18.824219 18.824219,-18.824219 h272.972656 c4.175782,0 7.550782,-3.375 7.550782,-7.550781 c0,-4.167969 -3.375,-7.550782 -7.550782,-7.550782 h-84.261718 v-68.171875 c0,-18.554687 -15.097657,-33.644531 -33.652344,-33.644531 c-11.121094,0 -204.09375,0 -214.664063,0 c-18.554687,0 -33.644531,15.089844 -33.644531,33.644531 v310.289063 c0,4.179687 3.382812,7.550781 7.550781,7.550781 s7.550781,-3.3710940000000003 7.550781,-7.550781 v-310.289063 c0,-10.230469 8.3125,-18.542969 18.542969,-18.542969 h28.636719 l6.402344,32.75 c1.253906,6.3984380000000005 6.890625,11.039063 13.40625,11.039063 h118.679687 c6.667969,0 12.332031,-4.769531 13.460938,-11.339844 l5.589843,-32.449219 h28.488282 c10.226562,0 18.554687,8.3125 18.554687,18.542969 v68.171875 h-12.132812 v-12.039062 c0,-11.316406 -9.199219,-20.515625 -20.503907,-20.515625 h-186.488281 c-11.304687,0 -20.515625,9.199219 -20.515625,20.515625 v374.726562 c0,11.316406 9.210938,20.515625 20.515625,20.515625 h186.488281 c11.304688,0 20.503907,-9.199219 20.503907,-20.515625 v-18.121094 l12.132812,-7.003906 v38.976563 c0,10.230469 -8.328125,18.542969 -18.554687,18.542969 h-214.664063 c-10.230469,0 -18.542969,-8.3125 -18.542969,-18.542969 v-104.222657 c0,-4.164062 -3.382812,-7.546874 -7.550781,-7.546874 s-7.550781,3.382812 -7.550781,7.546874 v104.222657 c0,18.554687 15.089844,33.644531 33.644531,33.644531 h214.664063 c18.554687,0 33.652344,-15.089844 33.652344,-33.644531 v-47.695313 l23.617187,-13.628906 c8.484375,-4.90625 8.492187,-17.179688 0,-22.070312 zm-106.023437,-351.171876 h-116.28125 l-5.605469,-28.6875 h126.832031 zm55.175781,302.8125 h12.132812 v26.011719 l-12.132812,-7.003906 zm-15.097657,117.902344 c0,2.992188 -2.425781,5.417969 -5.40625,5.417969 h-186.488281 c-2.980469,0 -5.417969,-2.425781 -5.417969,-5.417969 v-374.726562 c0,-2.992188 2.4375,-5.417969 5.417969,-5.417969 h186.488281 c2.980469,0 5.40625,2.425781 5.40625,5.417969 v12.039062 h-146.382812 c-18.703125,0 -33.925781,15.222656 -33.925781,33.925782 v176.933593 c0,18.703125 15.222656,33.925781 33.925781,33.925781 h146.382812 v10.289063 l-8.980468,-5.183594 c-1.945313,-1.117187 -4.148438,-1.710937 -6.363282,-1.710937 c-7.027343,0 -12.746093,5.714844 -12.746093,12.742187 v12.957031 h-127.484375 c-10.226563,0 -18.542969,8.324219 -18.542969,18.542969 v23.515625 c0,10.21875 8.316406,18.542969 18.542969,18.542969 h127.484375 v12.957031 c0,7.027344 5.71875,12.742188 12.746093,12.742188 c4.347657,0 6.230469,-1.632813 15.34375,-6.894532 zm-28.089843,-73.707031 v30.398437 h-127.484375 c-1.902344,0 -3.441406,-1.546874 -3.441406,-3.441406 v-23.515625 c0,-1.8945310000000002 1.539062,-3.441406 3.441406,-3.441406 zm15.101562,54.359375 c0,-37.78125 0,-42.984375 0,-78.320312 c47.003907,27.144531 26.515625,15.296874 67.832031,39.160156 c-43.097656,24.894531 -21.105468,12.175781 -67.832031,39.160156 zm0,0 " id="svg_12" class="" fill="#000099" fill-opacity="1"/><path d="m496.847656 441.269531c-81.175781-46.863281-76.558594-44.96875-81.289062-44.96875-7.027344 0-12.742188 5.71875-12.742188 12.746094v12.957031h-67.085937c-10.230469 0-18.542969 8.324219-18.542969 18.542969v23.515625c0 10.21875 8.3125 18.542969 18.542969 18.542969h67.085937v12.957031c0 9.726562 10.558594 15.945312 19.105469 11.03125l74.925781-43.257812c8.484375-4.902344 8.492188-17.175782 0-22.066407zm-94.03125 26.234375h-67.085937c-1.902344 0-3.445313-1.550781-3.445313-3.441406v-23.515625c0-1.894531 1.542969-3.445313 3.445313-3.445313h67.085937zm15.097656 23.960938c0-37.226563 0-41.570313 0-78.320313l67.832032 39.160157zm0 0" id="svg_13" class="selected" fill="#000099" fill-opacity="1"/></g></svg>